<svg xmlns="http://www.w3.org/2000/svg" viewBox="0 0 30 30"><g fill="#303C42"><path d="M28 9h-7.293l-4.756-4.756c.02-.08.049-.158.049-.244 0-.551-.449-1-1-1s-1 .449-1 1c0 .086.029.164.05.244L9.292 9H2c-1.103 0-2 .897-2 2v14c0 1.103.897 2 2 2h26c1.103 0 2-.897 2-2V11c0-1.103-.897-2-2-2zM14.756 4.95c.08.021.158.05.244.05s.164-.029.244-.05L19.293 9h-8.586l4.05-4.05zM9.5 19.5c0 1.103-.897 2-2 2s-2-.897-2-2v-3c0-1.103.897-2 2-2s2 .897 2 2v3zm3-1h-1V21a.5.5 0 1 1-1 0v-6a.5.5 0 0 1 .5-.5h1.5c1.103 0 2 .897 2 2s-.897 2-2 2zm6-1a.5.5 0 1 1 0 1h-2v2H19a.5.5 0 1 1 0 1h-3a.5.5 0 0 1-.5-.5v-6a.5.5 0 0 1 .5-.5h3a.5.5 0 1 1 0 1h-2.5v2h2zm6 3.5a.5.5 0 1 1-1 0v-4.5c0-.551-.449-1-1-1h-1V21a.5.5 0 1 1-1 0v-6a.5.5 0 0 1 .5-.5h1.5c1.103 0 2 .897 2 2V21z"/><path d="M12.5 15.5h-1v2h1c.551 0 1-.449 1-1s-.449-1-1-1zM7.5 15.5c-.551 0-1 .449-1 1v3c0 .551.449 1 1 1s1-.449 1-1v-3c0-.551-.449-1-1-1z"/></g></svg>